<svg width="40" height="40" viewBox="0 0 40 40" fill="none" xmlns="http://www.w3.org/2000/svg">
<path d="M20 0L21.7068 10.1165C21.8493 10.9609 22.918 11.2473 23.4636 10.5872L30 2.67949L26.4199 12.294C26.121 13.0966 26.9034 13.879 27.706 13.5801L37.3205 10L29.4128 16.5364C28.7527 17.082 29.0391 18.1507 29.8835 18.2932L40 20L29.8835 21.7068C29.0391 21.8493 28.7527 22.918 29.4128 23.4636L37.3205 30L27.706 26.4199C26.9034 26.121 26.121 26.9034 26.4199 27.706L30 37.3205L23.4636 29.4128C22.918 28.7527 21.8493 29.0391 21.7068 29.8835L20 40L18.2932 29.8835C18.1507 29.0391 17.082 28.7527 16.5364 29.4128L10 37.3205L13.5801 27.706C13.879 26.9034 13.0966 26.121 12.294 26.4199L2.67949 30L10.5872 23.4636C11.2473 22.918 10.9609 21.8493 10.1165 21.7068L0 20L10.1165 18.2932C10.9609 18.1507 11.2473 17.082 10.5872 16.5364L2.67949 10L12.294 13.5801C13.0966 13.879 13.879 13.0966 13.5801 12.294L10 2.67949L16.5364 10.5872C17.082 11.2473 18.1507 10.9609 18.2932 10.1165L20 0Z" fill="#9C27B0"/>
</svg>
