<svg width="40" height="40" viewBox="0 0 40 40" fill="none" xmlns="http://www.w3.org/2000/svg">
<path d="M12.3965 4.38863C15.8673 -1.46288 24.1327 -1.46288 27.6035 4.38863C28.8402 6.4737 30.8362 7.96436 33.1475 8.52912C39.6339 10.114 42.1881 18.1944 37.8467 23.3958C36.2998 25.2492 35.5374 27.6611 35.7291 30.0952C36.2671 36.9263 29.5803 41.9202 23.4264 39.2833C21.2336 38.3437 18.7664 38.3437 16.5736 39.2833C10.4197 41.9202 3.73289 36.9263 4.27092 30.0952C4.46264 27.6611 3.70025 25.2492 2.15329 23.3958C-2.18806 18.1944 0.366072 10.114 6.8525 8.52912C9.16381 7.96436 11.1598 6.4737 12.3965 4.38863Z" fill="#357BF2"/>
</svg>
