<svg width="250" height="93" viewBox="0 0 250 93" fill="none" xmlns="http://www.w3.org/2000/svg">
<path d="M0 22.5455C0 10.0939 10.061 0 22.4719 0C34.8828 0 44.9438 10.0939 44.9438 22.5455V70.4545C44.9438 82.9061 34.8828 93 22.4719 93C10.061 93 0 82.9061 0 70.4545V22.5455Z" fill="#16160E"/>
<path d="M50.5618 0C75.3836 0 95.5056 20.1879 95.5056 45.0909V70.4545C95.5056 82.9061 85.4446 93 73.0337 93C60.6228 93 50.5618 82.9061 50.5618 70.4545V0Z" fill="#16160E"/>
<path d="M101.124 0C125.945 0 146.067 20.1879 146.067 45.0909V70.4545C146.067 82.9061 136.006 93 123.596 93C111.185 93 101.124 82.9061 101.124 70.4545V0Z" fill="#16160E"/>
<path d="M157.303 46.5C157.303 20.8188 178.054 0 203.652 0C229.249 0 250 20.8188 250 46.5C250 72.1812 229.249 93 203.652 93C178.054 93 157.303 72.1812 157.303 46.5Z" fill="#16160E"/>
</svg>
